<svg xmlns="http://www.w3.org/2000/svg" viewBox="0 0 24 24" width="400" height="400">
  <!-- Suivi: face + check + soft halo — beauty follow-up -->
  <path d="M12 4.2c-3.2 0-5.9 2.4-6.4 5.5-.1.7 0 1.4.2 2.1.3 1.5 1.1 2.9 2.2 3.9.2.2.5.3.8.2A5.8 5.8 0 0 0 12 17.2c1.1 0 2.1-.3 3-.8.3-.2.6-.2.9 0 1.4-1 2.4-2.5 2.7-4.2.1-.5.1-1 .1-1.5 0-3.4-2.7-6.5-6.7-6.5Z" fill="none" stroke="black" stroke-width="1.15" stroke-linejoin="round"/>
  <path d="M8.5 9.2c.6-.4 1.3-.7 2.1-.8" stroke="black" stroke-width="1" stroke-linecap="round" opacity="0.7"/>
  <circle cx="15.4" cy="6.8" r="3.2" fill="black"/>
  <path d="M14 6.8l1 1 1.8-1.6" fill="none" stroke="white" stroke-width="1.1" stroke-linecap="round" stroke-linejoin="round"/>
</svg>
