<?xml version="1.0" encoding="UTF-8"?>
<svg id="Calque_2" data-name="Calque 2" xmlns="http://www.w3.org/2000/svg" viewBox="0 0 141.6 146.78">
  <defs>
    <style>
      .cls-1 {
        fill: #3dcdf5;
      }

      .cls-2 {
        fill: #087391;
      }

      .cls-3 {
        fill: #009fd6;
      }

      .cls-4 {
        fill: #9ee7fa;
      }

      .cls-5 {
        fill: #d7f9ff;
      }
    </style>
  </defs>
  <g id="Calque_1-2" data-name="Calque 1">
    <g>
      <path class="cls-3" d="M76.25,53.45c-2.09,1.5-4.22,3.05-6.22,4.7-.02.01-.04.01-.06,0C48.28,41.98,14.98,39.69.48,39.56c-.6,0-.65.87-.06.94,1.85.22,3.7.46,5.45.71,14.91,2.28,29.75,5.86,43.67,11.67,6.15,2.65,11.87,6.22,17.15,10.31,2.58,1.98,5.16,4.24,7.37,6.64,3.51,3.69,6.46,8.13,7.75,13.08,2.26,8.5-1.29,17.4-6.87,23.96,0,0-.12.15-.12.16,0,0,.1-.05.11-.06.06-.04.11-.07.17-.11.29-.2.57-.41.86-.63.26-.2.51-.4.77-.6s.5-.41.74-.62.48-.43.72-.64.47-.44.69-.66.45-.45.67-.68.43-.46.64-.7.41-.47.62-.72.4-.49.59-.73.38-.5.56-.75.36-.51.54-.76.34-.52.51-.78.32-.52.48-.79.3-.53.45-.8.29-.54.42-.82.27-.55.39-.83.25-.56.36-.84.23-.56.33-.85.2-.57.3-.86.18-.57.27-.86.16-.58.24-.87.14-.59.2-.88.12-.59.17-.89.1-.59.14-.89.08-.6.1-.9.05-.6.07-.9.03-.6.04-.9,0-.6,0-.91-.02-.61-.03-.91-.04-.61-.07-.91-.06-.61-.11-.91-.09-.61-.14-.91-.11-.61-.18-.91-.14-.61-.22-.91-.16-.6-.26-.9-.19-.6-.29-.9-.22-.6-.33-.9-.24-.6-.37-.89-.27-.59-.41-.89-.3-.59-.45-.88c-.06-.12-.13-.24-.19-.35-.03-.06-.07-.12-.1-.18-.02-.03-.03-.06-.05-.09-.01-.02-.05-.06-.05-.09-2.36-4.07-5.27-7.66-8.6-10.82.2-.19.41-.38.6-.56,9.6-8.76,21.02-15.46,33.1-20.29,8.84-3.54,19.11-5.8,26.83-7.02.65-.1.55-1.07-.11-1.03-13.82.81-38.08,4.67-59.27,19.88Z"/>
      <path class="cls-3" d="M135.26,43.8s.04,0,.05.03c3.35,7.56,5.81,15.81,6.2,24.57,2.5,56.52-46.27,73.85-63.14,78.15-.4.1-.58-.48-.19-.63,32.73-11.99,60.33-38.33,57.46-74.76-.57-7.18-2.18-14.02-4.67-20.4-1.23-3.14.8-6.59,4.15-6.94l.14-.02Z"/>
      <g>
        <path class="cls-3" d="M1.99,68.64C.09,120.49,41.08,139.06,60.92,144.99c.7.21,1.05-.8.37-1.08C30.54,131.43,5.42,106.08,7.89,71.35c.38-5.35,1.98-12.46,3.77-18.39.72-2.38-.82-4.85-3.28-5.26-.57-.1-1.15-.19-1.73-.28-.02,0-.05,0-.05.03-2.55,6.63-4.34,13.72-4.61,21.18Z"/>
        <path class="cls-3" d="M84.27,5.13c11.01.78,21.26,4.02,30.25,9.14.76.43,1.46-.67.74-1.17C104.97,5.79,92.67,1.14,79.24.18,51.95-1.76,27.1,12.07,13.26,34.07c-.02.03,0,.07.04.07.36.03.72.06,1.08.09,3.93.34,7.74-1.28,10.33-4.26C40.22,12.14,62.48,3.58,84.27,5.13Z"/>
      </g>
      <g>
        <path class="cls-2" d="M70.09,49.35l9.57-14.67s0-.07-.04-.07h-9.57s-.05.02-.05.05v14.67s.06.07.09.03Z"/>
        <path class="cls-4" d="M79.62,34.52l-9.54-8.72s-.08,0-.08.04v8.72s.02.05.05.05h9.54s.06-.05.03-.08Z"/>
        <path class="cls-1" d="M69.95,34.61h-9.57s-.06.04-.04.07l9.57,14.67s.09.02.09-.03v-14.67s-.02-.05-.05-.05Z"/>
        <path class="cls-5" d="M69.92,25.8l-9.54,8.72s-.01.08.03.08h9.54s.05-.02.05-.05v-8.72s-.05-.06-.08-.04Z"/>
      </g>
      <path class="cls-3" d="M69.59,69.88c-.18.15-.37.3-.55.45-.54.45-1.05.92-1.54,1.43-.34.36-.68.73-.99,1.11s-.6.75-.87,1.13-.52.76-.75,1.16-.44.77-.64,1.17-.37.79-.52,1.19-.3.8-.42,1.21-.23.81-.32,1.22-.16.82-.22,1.23-.1.83-.12,1.24-.04.83-.04,1.25.02.84.05,1.26.07.84.13,1.26.13.85.21,1.27.17.85.28,1.27.22.85.34,1.27.26.85.41,1.27.3.84.46,1.26.34.84.52,1.26.37.84.57,1.25.4.83.61,1.24.43.82.65,1.23.46.82.69,1.22.48.81.72,1.2.5.8.75,1.19.51.78.77,1.17.52.77.79,1.15.53.76.81,1.13c.16.23.33.45.49.67,4.19,6.14,8.33,13.55,8.42,21.36.4,7.75-3.03,16.14-10.09,19.85,0,0-.86.43-.89.28-.01-.06.37-.38.55-.52.06-.05.12-.09.17-.14,1.32-1.15,2.55-2.41,3.55-3.85,5.23-7.48,4.5-17.65.59-25.55-1.57-3.22-3.58-6.21-5.61-9.2-6-8.55-12.2-20.09-6.85-30.41.24-.45.5-.9.77-1.33s.57-.86.89-1.26.64-.8.99-1.18.71-.75,1.09-1.09.77-.68,1.18-.99.83-.61,1.27-.88.89-.52,1.35-.76c.2-.1.4-.19.6-.28.1-.05.21-.09.31-.14.05-.02.1-.05.15-.07.04-.02.1-.04.05.03-.21.28-.48.53-.76.76Z"/>
    </g>
  </g>
</svg>